<?xml version="1.0" encoding="iso-8859-1"?>
<!-- Generator: Adobe Illustrator 19.0.0, SVG Export Plug-In . SVG Version: 6.00 Build 0)  -->
<svg xmlns="http://www.w3.org/2000/svg" xmlns:xlink="http://www.w3.org/1999/xlink" version="1.1" id="Capa_1" x="0px" y="0px" viewBox="0 0 504.973 504.973" style="enable-background:new 0 0 504.973 504.973;" xml:space="preserve" width="512" height="512">
<g>
	<polyline style="fill:#FFA317;" points="222.546,338.527 71.408,338.527 71.408,269.462 470.786,269.462 470.786,338.527    242.547,338.527  "/>
	<polyline style="fill:#B1DCEE;" points="242.547,338.527 470.786,338.527 470.786,497.473 71.408,497.473 71.408,338.527    222.546,338.527  "/>
	
		<rect x="27.506" y="105.321" transform="matrix(0.8665 -0.4992 0.4992 0.8665 -39.4812 132.0918)" style="fill:#FFA317;" width="399.378" height="69.065"/>
	<path style="fill:#214245;" d="M99.449,261.962l328.254-189.12L385.739,0L26.687,206.864l37.221,64.604v59.56v15v158.945h414.378   V346.027v-15v-69.065H99.449z M309.722,331.027l54.066-54.065h88.892l-54.066,54.065H309.722z M89.514,331.027l54.066-54.065   h88.891l-54.066,54.065H89.514z M78.908,320.421v-43.459h43.459L78.908,320.421z M255.776,154.585l-77.021,44.374l19.856-73.836   l77.021-44.375L255.776,154.585z M294.014,70.158l77.025-44.377l-19.856,73.837l-77.025,44.378L294.014,70.158z M160.375,209.549   l-77.022,44.375l19.856-73.836l77.022-44.376L160.375,209.549z M369.564,89.027l15.961-59.351l21.694,37.657L369.564,89.027z    M84.828,190.678l-15.961,59.352l-21.695-37.656L84.828,190.678z M463.286,489.973H78.908V376.029h103.636v-15H78.908v-15.001   h143.638v-15h-22.928l54.066-54.065h88.891l-54.066,54.065h-45.962v15h220.739V489.973z M419.827,331.027l43.459-43.459v43.459   H419.827z"/>
</g>















</svg>
